<?xml version="1.0" standalone="no"?><!DOCTYPE svg PUBLIC "-//W3C//DTD SVG 1.1//EN" "http://www.w3.org/Graphics/SVG/1.1/DTD/svg11.dtd"><svg class="icon" width="200px" height="199.03px" viewBox="0 0 1029 1024" version="1.1" xmlns="http://www.w3.org/2000/svg"><path d="M107.90912 0h819.2a102.4 102.4 0 0 1 102.4 102.4v819.2a102.4 102.4 0 0 1-102.4 102.4h-819.2a102.4 102.4 0 0 1-102.4-102.4V102.4a102.4 102.4 0 0 1 102.4-102.4z" fill="#3BCAAE" /><path d="M517.43744 512m-440.32 0a440.32 440.32 0 1 0 880.64 0 440.32 440.32 0 1 0-880.64 0Z" fill="#FDFFFF" /><path d="M517.50912 512l-112.64-440.32h225.28z" fill="#FF5009" /><path d="M517.50912 512l112.64 440.32h-225.28l112.64-440.32" fill="#FF5009" /><path d="M517.50912 501.76l-440.32 112.64V389.12l440.32 112.64" fill="#FF5009" /><path d="M517.50912 512l440.32 112.64V399.36l-440.32 112.64" fill="#FF5009" /><path d="M517.50912 219.1872a292.864 292.864 0 1 1-292.864 292.864 292.80256 292.80256 0 0 1 292.864-292.864z" fill="#3BCAAE" /><path d="M102.4 0h409.6v1024H102.4A102.4 102.4 0 0 1 0 921.6V102.4A102.4 102.4 0 0 1 102.4 0z" fill="#FFFFFF" opacity=".2" /></svg>