<?xml version="1.0" standalone="no"?><!DOCTYPE svg PUBLIC "-//W3C//DTD SVG 1.1//EN" "http://www.w3.org/Graphics/SVG/1.1/DTD/svg11.dtd"><svg class="icon" width="200px" height="200.00px" viewBox="0 0 1024 1024" version="1.1" xmlns="http://www.w3.org/2000/svg"><path d="M0 0m102.4 0l819.2 0q102.4 0 102.4 102.4l0 819.2q0 102.4-102.4 102.4l-819.2 0q-102.4 0-102.4-102.4l0-819.2q0-102.4 102.4-102.4Z" fill="#D55E40" /><path d="M102.4 92.16m102.4 0l614.4 0q102.4 0 102.4 102.4l0 481.28q0 102.4-102.4 102.4l-614.4 0q-102.4 0-102.4-102.4l0-481.28q0-102.4 102.4-102.4Z" fill="#F3AE53" /><path d="M102.4 614.4h819.2v61.44a102.4 102.4 0 0 1-102.4 102.4H204.8a102.4 102.4 0 0 1-102.4-102.4v-61.44z" fill="#7AB6B7" /><path d="M163.84 307.2m97.28 0l491.52 0q97.28 0 97.28 97.28l0 10.24q0 97.28-97.28 97.28l-491.52 0q-97.28 0-97.28-97.28l0-10.24q0-97.28 97.28-97.28Z" fill="#D55E40" /><path d="M163.84 143.36h686.08v20.48H163.84z" fill="#31BBC6" /><path d="M276.48 409.6m-92.16 0a92.16 92.16 0 1 0 184.32 0 92.16 92.16 0 1 0-184.32 0Z" fill="#FFFFFF" /><path d="M276.48 409.6m-46.08 0a46.08 46.08 0 1 0 92.16 0 46.08 46.08 0 1 0-92.16 0Z" fill="#D55E40" /><path d="M319.82592 351.8976l14.4896 14.47936-21.72928 21.72928-14.47936-14.47936z m28.01664 47.77984v20.48h-30.72v-20.48h30.72z m-13.98784 53.59616l-14.47936 14.47936-21.71904-21.71904 14.47936-14.4896zM286.07488 481.28h-20.48v-30.72h20.48v30.72z m-53.58592-13.9776l-14.47936-14.47936 21.71904-21.72928 14.47936 14.47936z m-28.0064-47.77984v-20.48h30.72v20.48h-30.72z m13.9776-53.59616l14.47936-14.47936 21.71904 21.71904-14.47936 14.4896zM266.24 337.92h20.48v30.72h-20.48v-30.72z" fill="#8B392E" /><path d="M378.88 317.44h256v184.32H378.88z" fill="#FFFFFF" /><path d="M378.88 317.44v184.32h143.36s44.3392-96.09216 0-184.32H378.88z" fill="#8B392E" /><path d="M634.88 317.44v184.32h-41.5232s-44.51328-96.09216 0-184.32H634.88z" fill="#8B392E" /><path d="M737.28 409.6m-92.16 0a92.16 92.16 0 1 0 184.32 0 92.16 92.16 0 1 0-184.32 0Z" fill="#FFFFFF" /><path d="M163.84 194.56h686.08v20.48H163.84z" fill="#31BBC6" /><path d="M163.84 245.76h686.08v20.48H163.84z" fill="#31BBC6" /><path d="M737.28 409.6m-46.08 0a46.08 46.08 0 1 0 92.16 0 46.08 46.08 0 1 0-92.16 0Z" fill="#D55E40" /><path d="M102.4 573.44h819.2v20.48H102.4z" fill="#7AB6B7" /><path d="M780.40064 351.80544l14.4896 14.47936-21.72928 21.72928-14.47936-14.4896zM808.31488 399.36v20.48h-30.72v-20.48h30.72z m-13.88544 53.36064l-14.47936 14.4896-21.71904-21.72928 14.47936-14.47936z m-47.55456 27.91424h-20.48v-30.72h20.48v30.72z m-53.36064-13.88544l-14.47936-14.47936 21.71904-21.71904 14.47936 14.47936zM665.6 419.19488v-20.48h30.72v20.48h-30.72z m13.88544-53.36064l14.47936-14.47936 21.72928 21.71904-14.4896 14.47936zM727.04 337.92h20.48v30.72h-20.48v-30.72z" fill="#8B392E" /><path d="M163.84 849.92h686.08l40.96 174.08H133.12z" fill="#BA4A2D" /><path d="M76.8 51.2A25.6 25.6 0 1 1 51.2 76.8 25.6 25.6 0 0 1 76.8 51.2z m849.92-10.24A25.6 25.6 0 1 1 901.12 66.56 25.6 25.6 0 0 1 926.72 40.96z m0 880.64a25.6 25.6 0 1 1-25.6 25.6 25.6 25.6 0 0 1 25.6-25.6z m-849.92-10.24A25.6 25.6 0 1 1 51.2 936.96 25.6 25.6 0 0 1 76.8 911.36zM512 880.64a20.48 20.48 0 1 1-20.48 20.48 20.48 20.48 0 0 1 20.48-20.48z" fill="#31BBC6" /><path d="M291.84 890.88a25.6 25.6 0 1 1-25.6 25.6 25.6 25.6 0 0 1 25.6-25.6z m419.84 0a25.6 25.6 0 1 1-25.6 25.6 25.6 25.6 0 0 1 25.6-25.6z m81.92 40.96a35.84 35.84 0 1 1-35.84 35.84 35.84 35.84 0 0 1 35.84-35.84z m-573.44 0a35.84 35.84 0 1 1-35.84 35.84 35.84 35.84 0 0 1 35.84-35.84z" fill="#FFFFFF" /></svg>