<?xml version="1.0" standalone="no"?><!DOCTYPE svg PUBLIC "-//W3C//DTD SVG 1.1//EN" "http://www.w3.org/Graphics/SVG/1.1/DTD/svg11.dtd"><svg class="icon" width="200px" height="200.00px" viewBox="0 0 1024 1024" version="1.1" xmlns="http://www.w3.org/2000/svg"><path d="M0 0m102.4 0l819.2 0q102.4 0 102.4 102.4l0 819.2q0 102.4-102.4 102.4l-819.2 0q-102.4 0-102.4-102.4l0-819.2q0-102.4 102.4-102.4Z" fill="#F36C52" /><path d="M51.2 51.2m51.2 0l819.2 0q51.2 0 51.2 51.2l0 153.6q0 51.2-51.2 51.2l-819.2 0q-51.2 0-51.2-51.2l0-153.6q0-51.2 51.2-51.2Z" fill="#D9D4C6" /><path d="M158.72 460.8h235.52a35.84 35.84 0 0 1 35.84 35.84v10.24a35.84 35.84 0 0 1-35.84 35.84h-235.52a35.84 35.84 0 0 1-35.84-35.84v-10.24a35.84 35.84 0 0 1 35.84-35.84z m112.64-112.64h10.24a35.84 35.84 0 0 1 35.84 35.84v235.52a35.84 35.84 0 0 1-35.84 35.84h-10.24a35.84 35.84 0 0 1-35.84-35.84v-235.52a35.84 35.84 0 0 1 35.84-35.84z" fill="#FFFFFF" /><path d="M563.2 51.2h40.96l122.88 256h-40.96z" fill="#B0AB93" /><path d="M665.6 51.2h143.36l122.88 256H788.48z" fill="#B0AB93" /><path d="M593.92 460.8m35.84 0l235.52 0q35.84 0 35.84 35.84l0 10.24q0 35.84-35.84 35.84l-235.52 0q-35.84 0-35.84-35.84l0-10.24q0-35.84 35.84-35.84Z" fill="#FFFFFF" /><path d="M593.92 727.04m35.84 0l235.52 0q35.84 0 35.84 35.84l0 10.24q0 35.84-35.84 35.84l-235.52 0q-35.84 0-35.84-35.84l0-10.24q0-35.84 35.84-35.84Z" fill="#FFFFFF" /><path d="M593.92 860.16m35.84 0l235.52 0q35.84 0 35.84 35.84l0 10.24q0 35.84-35.84 35.84l-235.52 0q-35.84 0-35.84-35.84l0-10.24q0-35.84 35.84-35.84Z" fill="#FFFFFF" /><path d="M222.208 727.4496L388.7104 893.952a35.84 35.84 0 0 1 0 50.688l-7.23968 7.23968a35.84 35.84 0 0 1-50.688 0L164.2496 785.408a35.84 35.84 0 0 1 0-50.688l7.23968-7.23968a35.84 35.84 0 0 1 50.71872-0.03072z m159.29344 0l7.23968 7.23968a35.84 35.84 0 0 1 0 50.688L222.208 951.9104a35.84 35.84 0 0 1-50.688 0l-7.23968-7.23968a35.84 35.84 0 0 1 0-50.688L330.752 727.4496a35.84 35.84 0 0 1 50.71872 0z" fill="#FFFFFF" /></svg>