<?xml version="1.0" standalone="no"?><!DOCTYPE svg PUBLIC "-//W3C//DTD SVG 1.1//EN" "http://www.w3.org/Graphics/SVG/1.1/DTD/svg11.dtd"><svg class="icon" width="200px" height="200.00px" viewBox="0 0 1024 1024" version="1.1" xmlns="http://www.w3.org/2000/svg"><path d="M0 512h1024v409.6a102.4 102.4 0 0 1-102.4 102.4H102.4A102.4 102.4 0 0 1 0 921.6V512z" fill="#FEE69C" /><path d="M102.4 0h819.2a102.4 102.4 0 0 1 102.4 102.4v409.6H0V102.4A102.4 102.4 0 0 1 102.4 0z" fill="#F4D886" /><path d="M143.36 204.8m97.28 0l563.2 0q97.28 0 97.28 97.28l0 20.48q0 97.28-97.28 97.28l-563.2 0q-97.28 0-97.28-97.28l0-20.48q0-97.28 97.28-97.28Z" fill="#F1665C" /><path d="M143.36 604.16m97.28 0l563.2 0q97.28 0 97.28 97.28l0 20.48q0 97.28-97.28 97.28l-563.2 0q-97.28 0-97.28-97.28l0-20.48q0-97.28 97.28-97.28Z" fill="#FFC837" /><path d="M250.88 312.32m-92.47744 0a92.47744 92.47744 0 1 0 184.95488 0 92.47744 92.47744 0 1 0-184.95488 0Z" fill="#FFF5E0" /><path d="M793.6 711.68m-92.47744 0a92.47744 92.47744 0 1 0 184.95488 0 92.47744 92.47744 0 1 0-184.95488 0Z" fill="#FFF5E0" /></svg>