<?xml version="1.0" standalone="no"?><!DOCTYPE svg PUBLIC "-//W3C//DTD SVG 1.1//EN" "http://www.w3.org/Graphics/SVG/1.1/DTD/svg11.dtd"><svg class="icon" width="200px" height="200.00px" viewBox="0 0 1024 1024" version="1.1" xmlns="http://www.w3.org/2000/svg"><path d="M5.069307 162.217822m101.386139 0l811.089108 0q101.386139 0 101.386139 101.386138l0 659.009901q0 101.386139-101.386139 101.386139l-811.089108 0q-101.386139 0-101.386139-101.386139l0-659.009901q0-101.386139 101.386139-101.386138Z" fill="#FEB52F" /><path d="M106.455446 0h10.138613v253.465347a50.693069 50.693069 0 0 1-50.693069 50.693069H55.762376a50.693069 50.693069 0 0 1-50.693069-50.693069V101.386139A101.386139 101.386139 0 0 1 106.455446 0z" fill="#DE3F18" /><path d="M116.594059 0h111.524753v253.465347a50.693069 50.693069 0 0 1-50.693069 50.693069h-10.138614a50.693069 50.693069 0 0 1-50.69307-50.693069V0z" fill="#FFFFFF" /><path d="M228.118812 0h111.524752v253.465347a50.693069 50.693069 0 0 1-50.693069 50.693069h-10.138614a50.693069 50.693069 0 0 1-50.693069-50.693069V0z" fill="#DE3F18" /><path d="M339.643564 0h111.524753v253.465347a50.693069 50.693069 0 0 1-50.693069 50.693069h-10.138614a50.693069 50.693069 0 0 1-50.69307-50.693069V0z" fill="#FFFFFF" /><path d="M451.168317 0h111.524752v253.465347a50.693069 50.693069 0 0 1-50.693069 50.693069h-10.138614a50.693069 50.693069 0 0 1-50.693069-50.693069V0z" fill="#DE3F18" /><path d="M562.693069 0h111.524753v253.465347a50.693069 50.693069 0 0 1-50.69307 50.693069h-10.138613a50.693069 50.693069 0 0 1-50.69307-50.693069V0z" fill="#FFFFFF" /><path d="M674.217822 0h111.524752v253.465347a50.693069 50.693069 0 0 1-50.693069 50.693069h-10.138614a50.693069 50.693069 0 0 1-50.693069-50.693069V0z" fill="#DE3F18" /><path d="M785.742574 0h111.524753v253.465347a50.693069 50.693069 0 0 1-50.69307 50.693069h-10.138613a50.693069 50.693069 0 0 1-50.69307-50.693069V0z" fill="#FFFFFF" /><path d="M897.267327 0h20.277227a101.386139 101.386139 0 0 1 101.386139 101.386139v152.079208a50.693069 50.693069 0 0 1-50.693069 50.693069h-20.277228a50.693069 50.693069 0 0 1-50.693069-50.693069V0z" fill="#DE3F18" /><path d="M136.871287 334.574257h385.267327v659.009901H136.871287z" fill="#FFFFFF" /><path d="M167.287129 364.990099h324.435643v192.633663H167.287129z" fill="#B5DBD0" /><path d="M167.287129 598.178218h324.435643v364.990099H167.287129z" fill="#B5DBD0" /><path d="M451.168317 567.762376h60.831683v20.277228h-60.831683z" fill="#A0A0A0" /><path d="M268.673267 425.821782h121.663367v50.693069H268.673267z" fill="#FFFFFF" /><path d="M593.108911 334.574257h344.712871v344.712872H593.108911z" fill="#FFFFFF" /><path d="M613.386139 354.851485h304.158415v304.158416H613.386139z" fill="#B1D7CC" /><path d="M664.079208 354.851485h253.465346v304.158416z" fill="#C1DFD6" /></svg>