<?xml version="1.0" standalone="no"?><!DOCTYPE svg PUBLIC "-//W3C//DTD SVG 1.1//EN" "http://www.w3.org/Graphics/SVG/1.1/DTD/svg11.dtd"><svg class="icon" width="200px" height="200.00px" viewBox="0 0 1024 1024" version="1.1" xmlns="http://www.w3.org/2000/svg"><path d="M0 0m102.4 0l819.2 0q102.4 0 102.4 102.4l0 819.2q0 102.4-102.4 102.4l-819.2 0q-102.4 0-102.4-102.4l0-819.2q0-102.4 102.4-102.4Z" fill="#C2E3C4" /><path d="M102.4 0h819.2a102.4 102.4 0 0 1 102.4 102.4v122.88H0V102.4A102.4 102.4 0 0 1 102.4 0z" fill="#FFB63D" /><path d="M614.4 256h409.6l-522.24 768H92.16z" fill="#A2CEA5" /><path d="M0 225.28h1024v30.72H0z" fill="#DD9C32" /><path d="M694.75328 635.71968l-290.90816 167.936v-335.872z" fill="#FFFFFF" /><path d="M138.24 117.76m-56.32 0a56.32 56.32 0 1 0 112.64 0 56.32 56.32 0 1 0-112.64 0Z" fill="#FFFFFF" /><path d="M204.8 0h76.15488L378.88 112.64h-76.16512z" fill="#FFFFFF" /><path d="M389.12 0h76.15488L563.2 112.64h-76.16512z" fill="#FFFFFF" /><path d="M573.44 0h76.15488L747.52 112.64h-76.16512z" fill="#FFFFFF" /><path d="M757.76 0h76.15488L931.84 112.64h-76.16512z" fill="#FFFFFF" /><path d="M204.8 225.28h76.15488L378.88 112.64h-76.16512z" fill="#FFFFFF" /><path d="M389.12 225.28h76.15488L563.2 112.64h-76.16512z" fill="#FFFFFF" /><path d="M573.44 225.28h76.15488L747.52 112.64h-76.16512z" fill="#FFFFFF" /><path d="M757.76 225.28h76.15488L931.84 112.64h-76.16512z" fill="#FFFFFF" /></svg>