<?xml version="1.0" standalone="no"?><!DOCTYPE svg PUBLIC "-//W3C//DTD SVG 1.1//EN" "http://www.w3.org/Graphics/SVG/1.1/DTD/svg11.dtd"><svg class="icon" width="200px" height="200.00px" viewBox="0 0 1024 1024" version="1.1" xmlns="http://www.w3.org/2000/svg"><path d="M102.4 0h819.2a102.4 102.4 0 0 1 102.4 102.4v153.6H0V102.4A102.4 102.4 0 0 1 102.4 0z" fill="#6E371B" /><path d="M0 768h1024v153.6a102.4 102.4 0 0 1-102.4 102.4H102.4A102.4 102.4 0 0 1 0 921.6V768z" fill="#66DDCD" /><path d="M0 256h1024v256H0z" fill="#F04F25" /><path d="M0 512h1024v256H0z" fill="#F0A03B" /><path d="M107.52 128m-46.08 0a46.08 46.08 0 1 0 92.16 0 46.08 46.08 0 1 0-92.16 0Z" fill="#FFFFFF" /><path d="M107.52 384m-46.08 0a46.08 46.08 0 1 0 92.16 0 46.08 46.08 0 1 0-92.16 0Z" fill="#FFFFFF" /><path d="M107.52 640m-46.08 0a46.08 46.08 0 1 0 92.16 0 46.08 46.08 0 1 0-92.16 0Z" fill="#FFFFFF" /><path d="M107.52 896m-46.08 0a46.08 46.08 0 1 0 92.16 0 46.08 46.08 0 1 0-92.16 0Z" fill="#FFFFFF" /><path d="M194.56 122.88h737.28v10.24H194.56z" fill="#FFFFFF" fill-opacity=".7" /><path d="M194.56 378.88h737.28v10.24H194.56z" fill="#FFFFFF" fill-opacity=".7" /><path d="M194.56 634.88h737.28v10.24H194.56z" fill="#FFFFFF" fill-opacity=".7" /><path d="M194.56 890.88h737.28v10.24H194.56z" fill="#FFFFFF" fill-opacity=".7" /></svg>