<?xml version="1.0" standalone="no"?><!DOCTYPE svg PUBLIC "-//W3C//DTD SVG 1.1//EN" "http://www.w3.org/Graphics/SVG/1.1/DTD/svg11.dtd"><svg class="icon" width="200px" height="200.00px" viewBox="0 0 1024 1024" version="1.1" xmlns="http://www.w3.org/2000/svg"><path d="M0 0m102.4 0l819.2 0q102.4 0 102.4 102.4l0 819.2q0 102.4-102.4 102.4l-819.2 0q-102.4 0-102.4-102.4l0-819.2q0-102.4 102.4-102.4Z" fill="#4F474E" /><path d="M102.4 0h163.84v1024H102.4A102.4 102.4 0 0 1 0 921.6V102.4A102.4 102.4 0 0 1 102.4 0z" fill="#FA7570" /><path d="M624.80384 296.96m-119.83872 0a119.83872 119.83872 0 1 0 239.67744 0 119.83872 119.83872 0 1 0-239.67744 0Z" fill="#F5F5B3" /><path d="M629.76 629.76m-199.68 0a199.68 199.68 0 1 0 399.36 0 199.68 199.68 0 1 0-399.36 0Z" fill="#F5F5B3" /><path d="M408.32 768h430.08v122.88h-430.08z" fill="#4F474E" /><path d="M629.72928 472.66816l-26.75712-46.34624h53.52448z" fill="#FA7570" /><path d="M614.43072 512l15.36-30.72 15.36 30.72v194.56l-15.36 30.72-15.36-30.72V512z" fill="#FA7570" /></svg>