<?xml version="1.0" standalone="no"?><!DOCTYPE svg PUBLIC "-//W3C//DTD SVG 1.1//EN" "http://www.w3.org/Graphics/SVG/1.1/DTD/svg11.dtd"><svg class="icon" width="200px" height="200.00px" viewBox="0 0 1024 1024" version="1.1" xmlns="http://www.w3.org/2000/svg"><path d="M0 0m102.4 0l819.2 0q102.4 0 102.4 102.4l0 819.2q0 102.4-102.4 102.4l-819.2 0q-102.4 0-102.4-102.4l0-819.2q0-102.4 102.4-102.4Z" fill="#DC6845" /><path d="M0 870.4h1024v61.44H0z" fill="#574189" /><path d="M0 143.36h1024v10.24H0z" fill="#574189" /><path d="M61.44 20.48m15.36 0l870.4 0q15.36 0 15.36 15.36l0 81.92q0 15.36-15.36 15.36l-870.4 0q-15.36 0-15.36-15.36l0-81.92q0-15.36 15.36-15.36Z" fill="#C45F41" /><path d="M61.44 40.96h215.04v10.24H61.44z" fill="#E2AFA0" /><path d="M61.44 61.44h215.04v10.24H61.44z" fill="#E2AFA0" /><path d="M61.44 81.92h215.04v10.24H61.44z" fill="#E2AFA0" /><path d="M61.44 102.4h215.04v10.24H61.44z" fill="#E2AFA0" /><path d="M696.32 30.72h71.68v92.16h-71.68z" fill="#FFFFFF" /><path d="M788.48 30.72h163.84v92.16H788.48z" fill="#574189" /><path d="M0 245.76h1024v624.64H0z" fill="#4F966E" /><path d="M0 839.68h1024v10.24H0z" fill="#FFFFFF" opacity=".6" /><path d="M30.72 153.6h399.36v92.16H30.72z" fill="#FFFFFF" /><path d="M716.8 153.6h276.48v92.16H716.8z" fill="#FFFFFF" /><path d="M808.96 307.2h143.36v143.36H808.96z" fill="#574189" /><path d="M527.36 558.08m-250.88 0a250.88 250.88 0 1 0 501.76 0 250.88 250.88 0 1 0-501.76 0Z" fill="#DC6845" /><path d="M525.76256 558.08m-174.08 0a174.08 174.08 0 1 0 348.16 0 174.08 174.08 0 1 0-348.16 0Z" fill="#574189" /><path d="M524.288 447.488a110.68416 110.68416 0 1 1-107.52 110.592 109.11744 109.11744 0 0 1 107.52-110.592z" fill="#FFFFFF" /><path d="M524.288 459.33568a98.78528 98.78528 0 1 1-95.95904 98.74432 97.3824 97.3824 0 0 1 95.95904-98.74432z" fill="#574189" /><path d="M389.12 552.96h81.92v81.92h-81.92z" fill="#574189" /><path d="M573.44 471.04h61.44v40.96h-61.44z" fill="#574189" /><path d="M524.16512 558.08m-52.79744 0a52.79744 52.79744 0 1 0 105.59488 0 52.79744 52.79744 0 1 0-105.59488 0Z" fill="#FFFFFF" /></svg>