<?xml version="1.0" standalone="no"?><!DOCTYPE svg PUBLIC "-//W3C//DTD SVG 1.1//EN" "http://www.w3.org/Graphics/SVG/1.1/DTD/svg11.dtd"><svg class="icon" width="200px" height="200.00px" viewBox="0 0 1024 1024" version="1.1" xmlns="http://www.w3.org/2000/svg"><path d="M102.47168 0h819.2a102.4 102.4 0 0 1 102.4 102.4v819.2a102.4 102.4 0 0 1-102.4 102.4h-819.2a102.4 102.4 0 0 1-102.4-102.4V102.4a102.4 102.4 0 0 1 102.4-102.4z" fill="#FAF09B" /><path d="M512 522.24m-389.12 0a389.12 389.12 0 1 0 778.24 0 389.12 389.12 0 1 0-778.24 0Z" fill="#5B4731" /><path d="M512.07168 244.992A277.248 277.248 0 1 1 234.82368 522.24a277.248 277.248 0 0 1 277.248-277.248z" fill="#FFBB4E" /><path d="M512.07168 335.09376A187.14624 187.14624 0 1 1 324.93568 522.24a187.14624 187.14624 0 0 1 187.136-187.14624z" fill="#FF7145" /><path d="M512.07168 419.52256A102.71744 102.71744 0 1 1 409.35424 522.24a102.71744 102.71744 0 0 1 102.71744-102.71744z" fill="#63503C" /><path d="M476.0064 537.42592L786.176 259.072l20.7872 22.62016-310.1696 278.35392z" fill="#63503C" /><path d="M774.31808 211.11808l35.84-19.83488 2.87744 68.608-35.84 19.83488z" fill="#FFBC4E" /><path d="M851.65056 283.0848l24.87296-35.29728-70.656-11.264-24.87296 35.29728z" fill="#FF6C45" /><path d="M882.37056 252.3648l24.87296-35.29728-70.656-11.264-24.87296 35.29728z" fill="#FFBC4E" /><path d="M913.09056 221.6448l24.87296-35.28704-70.656-11.264-24.87296 35.29728z" fill="#FF7145" /><path d="M943.81056 190.9248l24.87296-35.29728-70.656-11.264-24.87296 35.29728z" fill="#FFBC4E" /><path d="M805.03808 170.15808l35.84-19.83488 2.87744 68.608-35.84 19.83488z" fill="#FF7646" /><path d="M835.75808 139.43808l35.84-19.83488 2.87744 68.608-35.84 19.83488z" fill="#FFBC4E" /><path d="M866.47808 108.71808l35.84-19.83488 2.87744 68.608-35.84 19.83488z" fill="#FF6C45" /></svg>